<svg width="25" height="24" viewBox="0 0 25 24" fill="none" xmlns="http://www.w3.org/2000/svg">
<g id="vuesax/linear/category-2">
<g id="category-2">
<path id="Vector" d="M17.5 10H19.5C21.5 10 22.5 9 22.5 7V5C22.5 3 21.5 2 19.5 2H17.5C15.5 2 14.5 3 14.5 5V7C14.5 9 15.5 10 17.5 10Z" stroke="#292D32" stroke-width="1.5" stroke-miterlimit="10" stroke-linecap="round" stroke-linejoin="round"/>
<path id="Vector_2" d="M5.5 22H7.5C9.5 22 10.5 21 10.5 19V17C10.5 15 9.5 14 7.5 14H5.5C3.5 14 2.5 15 2.5 17V19C2.5 21 3.5 22 5.5 22Z" stroke="#292D32" stroke-width="1.5" stroke-miterlimit="10" stroke-linecap="round" stroke-linejoin="round"/>
<path id="Vector_3" d="M6.5 10C8.70914 10 10.5 8.20914 10.5 6C10.5 3.79086 8.70914 2 6.5 2C4.29086 2 2.5 3.79086 2.5 6C2.5 8.20914 4.29086 10 6.5 10Z" stroke="#292D32" stroke-width="1.5" stroke-miterlimit="10" stroke-linecap="round" stroke-linejoin="round"/>
<path id="Vector_4" d="M18.5 22C20.7091 22 22.5 20.2091 22.5 18C22.5 15.7909 20.7091 14 18.5 14C16.2909 14 14.5 15.7909 14.5 18C14.5 20.2091 16.2909 22 18.5 22Z" stroke="#292D32" stroke-width="1.5" stroke-miterlimit="10" stroke-linecap="round" stroke-linejoin="round"/>
</g>
</g>
</svg>
