<svg width="24" height="24" viewBox="0 0 24 24" fill="none" xmlns="http://www.w3.org/2000/svg">
<path fill-rule="evenodd" clip-rule="evenodd" d="M12 4C7.58172 4 4 7.58172 4 12C4 16.4183 7.58172 20 12 20C16.4183 20 20 16.4183 20 12C20 7.58172 16.4183 4 12 4ZM2 12C2 6.47715 6.47715 2 12 2C17.5228 2 22 6.47715 22 12C22 17.5228 17.5228 22 12 22C6.47715 22 2 17.5228 2 12ZM14.7488 9.25991L11.835 10.2558C10.9994 10.562 10.4635 11.1395 10.2682 11.79C10.2645 11.8022 10.2606 11.8143 10.2565 11.8263L9.25982 14.7372L12.165 13.7442C13.0006 13.438 13.5365 12.8605 13.7318 12.21C13.7367 12.1936 13.7421 12.1772 13.7479 12.161L14.2424 10.7777L14.7488 9.25991ZM16.495 7.40323C16.9148 7.7845 17.0776 8.34963 16.9651 8.91202C16.9569 8.95271 16.9462 8.99285 16.9331 9.03222L16.1362 11.4208L16.1293 11.4409L15.6393 12.8116C15.2317 14.1364 14.1817 15.1394 12.8395 15.627L12.8215 15.6334L9.0362 16.9272C9.00952 16.9363 8.98246 16.9443 8.9551 16.9511C8.4518 17.0768 7.90425 16.9594 7.50501 16.5968C7.08523 16.2155 6.92236 15.6504 7.03493 15.088C7.0436 15.0447 7.05511 15.0021 7.06941 14.9603L8.35862 11.1952C8.76471 9.86709 9.81598 8.86144 11.1605 8.37298L11.1785 8.36662L14.9638 7.07282C14.9905 7.0637 15.0175 7.05571 15.0449 7.04887C15.5482 6.92316 16.0957 7.04061 16.495 7.40323Z" fill="#363333"/>
</svg>
