<svg width="24" height="24" viewBox="0 0 24 24" fill="none" xmlns="http://www.w3.org/2000/svg">
<path fill-rule="evenodd" clip-rule="evenodd" d="M12.7429 4.2354C12.2732 3.92153 11.7268 3.92153 11.2571 4.2354L11.2401 4.24654L5.06101 8.19666C4.37822 8.63225 4 9.38393 4 10.1372V18.5761C4 19.3728 4.62926 20 5.41791 20H18.5821C19.3707 20 20 19.3728 20 18.5761V10.1372C20 9.35818 19.5879 8.65983 18.9195 8.18424L12.7599 4.24654L12.7429 4.2354ZM13.845 2.56647C12.7073 1.81117 11.2927 1.81118 10.155 2.56648L3.98456 6.51106C3.9847 6.51097 3.98442 6.51115 3.98456 6.51106C2.69746 7.33237 2 8.73592 2 10.1372V18.5761C2 20.4726 3.51999 22 5.41791 22H18.5821C20.48 22 22 20.4726 22 18.5761V10.1372C22 8.5883 21.1651 7.31662 20.052 6.53555C20.0403 6.5273 20.0283 6.5193 20.0162 6.51157L13.845 2.56647Z" fill="white"/>
</svg>
