<svg width="193" height="121" viewBox="0 0 193 121" fill="none" xmlns="http://www.w3.org/2000/svg">
<path d="M73.2997 60.2727C73.2997 63.1065 72.7487 65.497 71.6467 67.4442C70.5446 69.3832 69.0573 70.8539 67.1847 71.8565C65.312 72.8509 63.224 73.348 60.9205 73.348C58.6004 73.348 56.504 72.8467 54.6314 71.8441C52.767 70.8332 51.2839 69.3583 50.1818 67.4194C49.0881 65.4722 48.5412 63.09 48.5412 60.2727C48.5412 57.4389 49.0881 55.0526 50.1818 53.1136C51.2839 51.1664 52.767 49.6957 54.6314 48.7013C56.504 47.6987 58.6004 47.1974 60.9205 47.1974C63.224 47.1974 65.312 47.6987 67.1847 48.7013C69.0573 49.6957 70.5446 51.1664 71.6467 53.1136C72.7487 55.0526 73.2997 57.4389 73.2997 60.2727ZM66.1903 60.2727C66.1903 58.7481 65.9873 57.4638 65.5813 56.4197C65.1836 55.3674 64.5911 54.572 63.804 54.0334C63.0251 53.4865 62.0639 53.2131 60.9205 53.2131C59.777 53.2131 58.8117 53.4865 58.0245 54.0334C57.2456 54.572 56.6532 55.3674 56.2472 56.4197C55.8494 57.4638 55.6506 58.7481 55.6506 60.2727C55.6506 61.7973 55.8494 63.0858 56.2472 64.1381C56.6532 65.1822 57.2456 65.9776 58.0245 66.5245C58.8117 67.0631 59.777 67.3324 60.9205 67.3324C62.0639 67.3324 63.0251 67.0631 63.804 66.5245C64.5911 65.9776 65.1836 65.1822 65.5813 64.1381C65.9873 63.0858 66.1903 61.7973 66.1903 60.2727ZM93.7883 52.6364V73H89.1746L81.8167 62.3011H81.6974V73H76.1689V52.6364H80.8621L88.1008 63.2955H88.2599V52.6364H93.7883ZM101.574 73L95.5681 52.6364H101.733L104.517 65.1648H104.676L107.977 52.6364H112.829L116.131 65.2045H116.29L119.074 52.6364H125.239L119.233 73H113.943L110.483 61.625H110.324L106.864 73H101.574ZM127.216 73V49.7273H143.989V54.8182H133.534V58.8182H143.125V63.9091H133.534V67.9091H143.943V73H127.216Z" fill="black"/>
</svg>
